<svg width="35" height="31" viewBox="0 0 35 31" fill="none" xmlns="http://www.w3.org/2000/svg">
<path d="M1.875 4.125V0.875H21.375V4.125H1.875ZM9.1875 24.4375H14.0625V20.375H18.125V15.5H14.0625V11.4375H9.1875V15.5H5.125V20.375H9.1875V24.4375ZM3.5 30.125C2.60625 30.125 1.84115 29.8068 1.20469 29.1703C0.568229 28.5339 0.25 27.7687 0.25 26.875V9C0.25 8.10625 0.568229 7.34115 1.20469 6.70469C1.84115 6.06823 2.60625 5.75 3.5 5.75H19.75C20.6437 5.75 21.4089 6.06823 22.0453 6.70469C22.6818 7.34115 23 8.10625 23 9V26.875C23 27.7687 22.6818 28.5339 22.0453 29.1703C21.4089 29.8068 20.6437 30.125 19.75 30.125H3.5ZM3.5 26.875H19.75V9H3.5V26.875ZM27.875 18.3438C26.9271 17.8833 26.1484 17.1182 25.5391 16.0484C24.9297 14.9786 24.625 13.7125 24.625 12.25C24.625 10.4083 25.0922 8.86458 26.0266 7.61875C26.9609 6.37292 28.1187 5.75 29.5 5.75C30.8813 5.75 32.0391 6.37292 32.9734 7.61875C33.9078 8.86458 34.375 10.4083 34.375 12.25C34.375 13.7125 34.0703 14.9786 33.4609 16.0484C32.8516 17.1182 32.0729 17.8833 31.125 18.3438V28.5C31.125 28.9604 30.9693 29.3464 30.6578 29.6578C30.3464 29.9693 29.9604 30.125 29.5 30.125C29.0396 30.125 28.6536 29.9693 28.3422 29.6578C28.0307 29.3464 27.875 28.9604 27.875 28.5V18.3438ZM29.5 15.5C29.825 15.5 30.1771 15.2089 30.5562 14.6266C30.9354 14.0443 31.125 13.2521 31.125 12.25C31.125 11.2479 30.9354 10.4557 30.5562 9.87344C30.1771 9.29115 29.825 9 29.5 9C29.175 9 28.8229 9.29115 28.4438 9.87344C28.0646 10.4557 27.875 11.2479 27.875 12.25C27.875 13.2521 28.0646 14.0443 28.4438 14.6266C28.8229 15.2089 29.175 15.5 29.5 15.5Z" fill="white"/>
</svg>
